<svg width="23" height="23" viewBox="0 0 23 23" fill="none" xmlns="http://www.w3.org/2000/svg">
<path fill-rule="evenodd" clip-rule="evenodd" d="M9.58329 1.91666C13.8207 1.91666 17.25 5.35019 17.25 9.58382C17.25 11.4416 16.5892 13.1456 15.4893 14.4728L21.1124 20.0959L20.0959 21.1124L14.4728 15.4893C13.1462 16.5889 11.4425 17.25 9.58329 17.25C5.34687 17.25 1.91663 13.816 1.91663 9.58382C1.91663 5.35019 5.34687 1.91666 9.58329 1.91666ZM9.58329 3.35416C6.14195 3.35416 3.35413 6.14293 3.35413 9.58382C3.35413 13.0235 6.14226 15.8125 9.58329 15.8125C13.0249 15.8125 15.8125 13.0239 15.8125 9.58382C15.8125 6.14256 13.0253 3.35416 9.58329 3.35416Z" fill="white"/>
</svg>
