<svg id="레이어_1" data-name="레이어 1" xmlns="http://www.w3.org/2000/svg" viewBox="0 0 54 54"><defs><style>.cls-1{fill:#676a75;}.cls-2,.cls-3{fill:#fff;stroke:#fff;stroke-miterlimit:10;}.cls-3{stroke-width:2px;}</style></defs><path class="cls-1" d="M27,51.9A24.9,24.9,0,1,0,2.1,27,24.9,24.9,0,0,0,27,51.9Z"/><path class="cls-2" d="M37.6,42.9a.37.37,0,0,1-.3-.1l-8-3.8a19.42,19.42,0,0,1-2.4.2c-8.1,0-14.6-5.8-14.6-12.9s6.6-12.9,14.6-12.9,14.6,5.8,14.6,12.9a10.3,10.3,0,0,1-1,4.6,10.54,10.54,0,0,1-2.7,3.9l.2,7.5v.2c0,.1-.1.1-.1.2s-.1.1-.2.1c.1.1,0,.1-.1.1Zm-8.1-5.1a.37.37,0,0,1,.3.1L37,41.4l-.2-6.8v-.2a.35.35,0,0,0,.1-.2,10.14,10.14,0,0,0,2.5-3.6,10.7,10.7,0,0,0,.9-4.3c0-6.5-6-11.7-13.4-11.7S13.5,19.9,13.5,26.3,19.5,38,26.9,38a19.42,19.42,0,0,0,2.4-.2Z"/><path class="cls-3" d="M26.7,26.5h-.2a.1.1,0,0,1-.1-.1.1.1,0,0,1-.1-.1.76.76,0,0,1-.2-.4v-.2c0-.1.1-.1.1-.2l.1-.1a.1.1,0,0,0,.1-.1h.4a.1.1,0,0,1,.1.1.1.1,0,0,1,.1.1c.1.1.1.1.1.2v.2a.52.52,0,0,1-.2.4l-.1.1c-.1,0-.1.1-.2.1Z"/><path class="cls-3" d="M21.6,26.5h-.2a3980657295328.66,3980657295328.66,0,0,0-.2-.2.76.76,0,0,1-.2-.4v-.2c0-.1.1-.1.1-.2l.1-.1a.1.1,0,0,0,.1-.1h.4a3980657295328.52,3980657295328.52,0,0,1,.2.2c.1.1.1.1.1.2v.2a.52.52,0,0,1-.2.4l-.1.1c-.1,0-.1.1-.2.1Z"/><path class="cls-3" d="M32,26.5a.52.52,0,0,1-.4-.2.76.76,0,0,1-.2-.4v-.2a7961314590657.4,7961314590657.4,0,0,0,.2-.2.76.76,0,0,1,.4-.2.52.52,0,0,1,.4.2l.1.1a.1.1,0,0,0,.1.1v.4a.1.1,0,0,1-.1.1l-.1.1a.76.76,0,0,1-.4.2Z"/></svg>