<svg id="레이어_1" data-name="레이어 1" xmlns="http://www.w3.org/2000/svg" viewBox="0 0 54 54"><defs><style>.cls-1{fill:#676a75;}.cls-2{fill:#fff;}.cls-2,.cls-3{stroke:#fff;stroke-miterlimit:10;}.cls-3{fill:none;stroke-width:2px;}</style></defs><path class="cls-1" d="M27.1,51.9A24.9,24.9,0,1,0,2.2,27,24.9,24.9,0,0,0,27.1,51.9Z"/><path class="cls-2" d="M33.5,33.7h-13c-.1,0-.1-.1-.2-.1s-.1-.1-.1-.2v-.2a7,7,0,0,1,2-4.9,6.8,6.8,0,0,1,4.9-2A6.83,6.83,0,0,1,34,33.2v.2c0,.1-.1.1-.1.2s-.1.1-.2.1ZM21.3,32.6H32.9a5.81,5.81,0,0,0-9.8-3.8,6.17,6.17,0,0,0-1.8,3.8Z"/><path class="cls-3" d="M27.1,19a3,3,0,0,1,1.8.6,3.49,3.49,0,0,1,1.2,1.5,4.13,4.13,0,0,1,.2,1.9,3.15,3.15,0,0,1-.9,1.7,2.84,2.84,0,0,1-1.7.9,3.13,3.13,0,0,1-1.9-.2,3.49,3.49,0,0,1-1.5-1.2,3,3,0,0,1-.6-1.8,2.9,2.9,0,0,1,1-2.3A3.36,3.36,0,0,1,27.1,19Z"/><path class="cls-2" d="M46.2,33.7H33.3c-.1,0-.1-.1-.2-.1s-.1-.1-.1-.2v-.2a7,7,0,0,1,2-4.9,7,7,0,0,1,9.8,0,7,7,0,0,1,2,4.9v.2c0,.1-.1.1-.1.2s-.1.1-.2.1ZM34,32.6H45.6a5.81,5.81,0,0,0-9.8-3.8A6.17,6.17,0,0,0,34,32.6Z"/><path class="cls-3" d="M39.8,19a3,3,0,0,1,1.8.6,3.49,3.49,0,0,1,1.2,1.5A4.13,4.13,0,0,1,43,23a3.15,3.15,0,0,1-.9,1.7,2.84,2.84,0,0,1-1.7.9,3.13,3.13,0,0,1-1.9-.2A3.49,3.49,0,0,1,37,24.2a3,3,0,0,1-.6-1.8,2.9,2.9,0,0,1,1-2.3A3.54,3.54,0,0,1,39.8,19Z"/><path class="cls-2" d="M20.7,33.7H7.8c-.1,0-.1-.1-.2-.1s-.1-.1-.1-.2v-.2a7,7,0,0,1,2-4.9,6.8,6.8,0,0,1,4.9-2,6.8,6.8,0,0,1,4.9,2,7,7,0,0,1,2,4.9v.2c0,.1-.1.1-.1.2s-.1.1-.2.1ZM8.6,32.6H20.2a5.83,5.83,0,0,0-5.8-5.4,6,6,0,0,0-4,1.6,5.68,5.68,0,0,0-1.8,3.8Z"/><path class="cls-3" d="M14.4,19a3,3,0,0,1,1.8.6,3.49,3.49,0,0,1,1.2,1.5,4.13,4.13,0,0,1,.2,1.9,3.15,3.15,0,0,1-.9,1.7,2.84,2.84,0,0,1-1.7.9,3.13,3.13,0,0,1-1.9-.2,3.49,3.49,0,0,1-1.5-1.2,3,3,0,0,1-.6-1.8,2.9,2.9,0,0,1,1-2.3A3.36,3.36,0,0,1,14.4,19"/></svg>