<svg id="레이어_1" data-name="레이어 1" xmlns="http://www.w3.org/2000/svg" viewBox="0 0 54 54"><defs><style>.cls-1{fill:#a2a5ad;}.cls-2{fill:#fff;}</style></defs><path class="cls-1" d="M27,52a24.9,24.9,0,1,0-24.9-24.9A24.9,24.9,0,0,0,27,52Z"/><path class="cls-2" d="M27,39.4a.6.6,0,0,1-.4-.1c-.1-.1-.2-.1-.3-.2s-.2-.2-.2-.3a.85.85,0,0,1,0-.8c.1-.1.1-.2.2-.3s.2-.2.3-.2.3-.1.4-.1a5.58,5.58,0,0,0,3.7-1.5,5.14,5.14,0,0,0,1.5-3.7.6.6,0,0,1,.1-.4c.1-.1.1-.2.2-.3s.2-.2.3-.2a.85.85,0,0,1,.8,0c.1.1.2.1.3.2s.2.2.2.3a.6.6,0,0,1,.1.4,6.71,6.71,0,0,1-.6,2.8,7.35,7.35,0,0,1-4,4,9.47,9.47,0,0,1-2.6.4Zm0,4.2a11.17,11.17,0,0,1-4.4-.9,11.75,11.75,0,0,1-6.2-6.2,11.17,11.17,0,0,1-.9-4.4c0-6.9,6.4-15.7,9.9-20.4l.7-.8a1.38,1.38,0,0,1,.4-.3.75.75,0,0,1,.5-.1.9.9,0,0,1,.5.1c.1.1.3.2.4.3l.6.8c3.6,4.8,9.9,13.5,9.9,20.4a11.17,11.17,0,0,1-.9,4.4,11.75,11.75,0,0,1-6.2,6.2,10.36,10.36,0,0,1-4.3.9Zm0-2.1a9.22,9.22,0,0,0,3.6-.7,10.49,10.49,0,0,0,3-2,8.32,8.32,0,0,0,2-3,8.57,8.57,0,0,0,.7-3.6c0-6.1-5.9-14.3-9.3-18.9-3.4,4.7-9.4,12.8-9.4,18.9a9.07,9.07,0,0,0,2.8,6.6A9.75,9.75,0,0,0,27,41.5Z"/></svg>